# xmcd
#
# Track frame offsets:
#	150
#	12346
#	25329
#	41786
#	52404
#	65295
#	77520
#	88478
#	101264
#	113489
#	125192
#	135836
#	146415
#	165772
#	178584
#	190535
#	201976
#	215363
#
# Disc length: 3019 seconds
#
# Revision: 1
# Processed by: cddbd v1.5.2PL0 Copyright (c) Steve Scherf et al.
# Submitted via: audiograbber 1.83.01
#
DISCID=f30bc912
DTITLE=Terri-Lynn Mahusky - A Touch of Tradition
DYEAR=2003
DGENRE=Country
TTITLE0=A Reel for Sean McKenna
TTITLE1=Our Last Waltz
TTITLE2=Stepdance Medley: Clog in D - Wedding Party Jig - Olive Branch - Mitton
TTITLE2='s Breakdown
TTITLE3=Jig Medley: Smash the Window - Little Burnt Potato
TTITLE4=Maids of Arrochar
TTITLE5=French Medley: The Old Man and the Old Woman - Growling Old Man and Wom
TTITLE5=an - Sherbrooke Reel
TTITLE6=Grizzly Bear
TTITLE7=Debbie's Waltz
TTITLE8=Shingle the Roof - Diamond Lil's
TTITLE9=Maple Sugar
TTITLE10=Schwartz's Back Yard
TTITLE11=Irish Medley: Dever the Dance - Morning Dew
TTITLE12=Neil Gow's Lament to the Death of His Second Wife
TTITLE13=Faded Love
TTITLE14=Liberty Two-Step - Happy Acres Two-Step
TTITLE15=McNichol's Waltz
TTITLE16=Honeysuckle Clog - Master McDermott's
TTITLE17=Amazing Grace
EXTD=
EXTT0=
EXTT1=
EXTT2=
EXTT3=
EXTT4=
EXTT5=
EXTT6=
EXTT7=
EXTT8=
EXTT9=
EXTT10=
EXTT11=
EXTT12=
EXTT13=
EXTT14=
EXTT15=
EXTT16=
EXTT17=
PLAYORDER=
